<?xml version="1.0" standalone="no"?>
 <!DOCTYPE svg PUBLIC "-//W3C//DTD SVG 1.1//EN" 
 "http://www.w3.org/Graphics/SVG/1.1/DTD/svg11.dtd"> 
<svg
  xmlns:svg="http://www.w3.org/2000/svg"
  xmlns="http://www.w3.org/2000/svg"
  xmlns:xlink="http://www.w3.org/1999/xlink"
  xmlns:inkscape="http://www.inkscape.org/namespaces/inkscape"
  version="1.1"
  width="99.9998mm" height="159.9946mm" viewBox="0.0000 0.0000 99.9998 159.9946">
<title>SVG Image created as bottom.svg date 2026-06-13T22:52:43 </title>
  <desc>Image generated by PCBNEW </desc>
<g style="fill:#000000; fill-opacity:1.0000;stroke:#000000; stroke-opacity:1.0000;
stroke-linecap:round; stroke-linejoin:round;"
 transform="translate(0 0) scale(1 1)">
<path style="fill:none; 
stroke:#D0D2CD; stroke-width:0.1000; stroke-opacity:1; 
stroke-linecap:round; stroke-linejoin:round;fill:none"
d="M 99.9998,0.0000
-0.0002,0.0000
-0.0002,160.0000
99.9998,160.0000
Z" /> 
</g>
<g style="fill:#4D7FC4; fill-opacity:1.0000; stroke:none;">
<circle cx="51.2748" cy="63.7250" r="0.3000" /> 
<circle cx="51.2748" cy="65.0000" r="0.3000" /> 
<circle cx="51.2748" cy="66.2750" r="0.3000" /> 
<circle cx="49.9998" cy="63.7250" r="0.3000" /> 
<circle cx="49.9998" cy="65.0000" r="0.3000" /> 
<circle cx="49.9998" cy="66.2750" r="0.3000" /> 
<circle cx="48.7248" cy="63.7250" r="0.3000" /> 
<circle cx="48.7248" cy="65.0000" r="0.3000" /> 
<circle cx="48.7248" cy="66.2750" r="0.3000" /> 
<path style="fill:#4D7FC4; fill-opacity:1.0000; stroke:none;fill-rule:evenodd;"
d="M 8.8498,125.8500
8.8498,124.1500
7.1498,124.1500
7.1498,125.8500
Z" /> 
<circle cx="5.4598" cy="125.0000" r="0.8500" /> 
<circle cx="7.9998" cy="127.5400" r="0.8500" /> 
<circle cx="5.4598" cy="127.5400" r="0.8500" /> 
<circle cx="7.9998" cy="130.0800" r="0.8500" /> 
<circle cx="5.4598" cy="130.0800" r="0.8500" /> 
<path style="fill:#4D7FC4; fill-opacity:1.0000; stroke:none;fill-rule:evenodd;"
d="M 88.8498,125.8500
88.8498,124.1500
87.1498,124.1500
87.1498,125.8500
Z" /> 
<circle cx="87.9998" cy="127.5400" r="0.8500" /> 
<circle cx="87.9998" cy="130.0800" r="0.8500" /> 
<path style="fill:#4D7FC4; fill-opacity:1.0000; stroke:none;fill-rule:evenodd;"
d="M 5.5998,89.3750
5.5808,89.2793
5.5266,89.1982
5.4455,89.1440
5.3498,89.1250
4.6498,89.1250
4.5541,89.1440
4.4730,89.1982
4.4188,89.2793
4.3998,89.3750
4.3998,90.6250
4.4188,90.7207
4.4730,90.8018
4.5541,90.8560
4.6498,90.8750
5.3498,90.8750
5.4455,90.8560
5.5266,90.8018
5.5808,90.7207
5.5998,90.6250
Z" /> 
</g>
<g style="fill:none; 
stroke:#4D7FC4; stroke-width:1.2000; stroke-opacity:1; 
stroke-linecap:round; stroke-linejoin:round;">
<path d="M4.9998 87.7250
L4.9998 88.2750
" />
<path style="fill:#4D7FC4; fill-opacity:1.0000; stroke:none;fill-rule:evenodd;"
d="M 44.8998,44.3502
44.8808,44.2545
44.8265,44.1733
44.7453,44.1190
44.6496,44.1000
43.3500,44.1000
43.2543,44.1190
43.1731,44.1733
43.1188,44.2545
43.0998,44.3502
43.0998,45.6498
43.1188,45.7455
43.1731,45.8267
43.2543,45.8810
43.3500,45.9000
44.6496,45.9000
44.7453,45.8810
44.8265,45.8267
44.8808,45.7455
44.8998,45.6498
Z" /> 
</g>
<g style="fill:#4D7FC4; fill-opacity:1.0000; stroke:none;">
<circle cx="41.4598" cy="45.0000" r="0.9000" /> 
<circle cx="38.9198" cy="45.0000" r="0.9000" /> 
<path style="fill:#4D7FC4; fill-opacity:1.0000; stroke:none;fill-rule:evenodd;"
d="M 67.0348,144.0850
67.0348,145.9150
68.9648,145.9150
68.9648,144.0850
Z" /> 
<circle cx="67.9998" cy="156.4000" r="1.0650" /> 
<circle cx="67.9998" cy="148.1000" r="1.0650" /> 
<path style="fill:#4D7FC4; fill-opacity:1.0000; stroke:none;fill-rule:evenodd;"
d="M 20.8498,45.8500
20.8498,44.1500
19.1498,44.1500
19.1498,45.8500
Z" /> 
<circle cx="19.9998" cy="47.5400" r="0.8500" /> 
<circle cx="19.9998" cy="50.0800" r="0.8500" /> 
<circle cx="19.9998" cy="52.6200" r="0.8500" /> 
<circle cx="19.9998" cy="55.1600" r="0.8500" /> 
<path style="fill:#02FFEE; fill-opacity:0.4000; stroke:none;fill-rule:evenodd;"
d="M 67.7393,155.3148
67.5727,155.3689
67.4167,155.4485
67.2750,155.5514
67.1512,155.6752
67.0483,155.8169
66.9688,155.9729
66.9146,156.1395
66.8872,156.3124
66.8872,156.4876
66.9146,156.6605
66.9688,156.8271
67.0483,156.9831
67.1512,157.1248
67.2750,157.2486
67.4167,157.3515
67.5727,157.4310
67.7393,157.4852
67.9122,157.5126
68.0874,157.5126
68.2603,157.4852
68.4269,157.4310
68.5829,157.3515
68.7246,157.2486
68.8484,157.1248
68.9513,156.9831
69.0309,156.8271
69.0850,156.6605
69.1124,156.4876
69.1124,156.3124
69.0850,156.1395
69.0309,155.9729
68.9513,155.8169
68.8484,155.6752
68.7246,155.5514
68.5829,155.4485
68.4269,155.3689
68.2603,155.3148
68.0874,155.2874
67.9122,155.2874
Z" /> 
<path style="fill:#02FFEE; fill-opacity:0.4000; stroke:none;fill-rule:evenodd;"
d="M 89.6727,148.6377
89.4637,148.7056
89.2678,148.8055
89.0899,148.9347
88.9345,149.0901
88.8053,149.2680
88.7054,149.4639
88.6375,149.6729
88.6031,149.8901
88.6031,150.1099
88.6375,150.3271
88.7054,150.5361
88.8053,150.7320
88.9345,150.9099
89.0899,151.0653
89.2678,151.1945
89.4637,151.2944
89.6727,151.3623
89.8899,151.3967
90.1097,151.3967
90.3269,151.3623
90.5359,151.2944
90.7318,151.1945
90.9097,151.0653
91.0651,150.9099
91.1943,150.7320
91.2942,150.5361
91.3621,150.3271
91.3965,150.1099
91.3965,149.8901
91.3621,149.6729
91.2942,149.4639
91.1943,149.2680
91.0651,149.0901
90.9097,148.9347
90.7318,148.8055
90.5359,148.7056
90.3269,148.6377
90.1097,148.6033
89.8899,148.6033
Z" /> 
<path style="fill:#02FFEE; fill-opacity:0.4000; stroke:none;fill-rule:evenodd;"
d="M 9.6727,148.6377
9.4637,148.7056
9.2678,148.8055
9.0899,148.9347
8.9345,149.0901
8.8053,149.2680
8.7054,149.4639
8.6375,149.6729
8.6031,149.8901
8.6031,150.1099
8.6375,150.3271
8.7054,150.5361
8.8053,150.7320
8.9345,150.9099
9.0899,151.0653
9.2678,151.1945
9.4637,151.2944
9.6727,151.3623
9.8899,151.3967
10.1097,151.3967
10.3269,151.3623
10.5359,151.2944
10.7318,151.1945
10.9097,151.0653
11.0651,150.9099
11.1943,150.7320
11.2942,150.5361
11.3621,150.3271
11.3965,150.1099
11.3965,149.8901
11.3621,149.6729
11.2942,149.4639
11.1943,149.2680
11.0651,149.0901
10.9097,148.9347
10.7318,148.8055
10.5359,148.7056
10.3269,148.6377
10.1097,148.6033
9.8899,148.6033
Z" /> 
<path style="fill:#02FFEE; fill-opacity:0.4000; stroke:none;fill-rule:evenodd;"
d="M 67.7393,147.0148
67.5727,147.0690
67.4167,147.1485
67.2750,147.2514
67.1512,147.3752
67.0483,147.5169
66.9688,147.6729
66.9146,147.8395
66.8872,148.0124
66.8872,148.1876
66.9146,148.3605
66.9688,148.5271
67.0483,148.6831
67.1512,148.8248
67.2750,148.9486
67.4167,149.0515
67.5727,149.1310
67.7393,149.1852
67.9122,149.2126
68.0874,149.2126
68.2603,149.1852
68.4269,149.1310
68.5829,149.0515
68.7246,148.9486
68.8484,148.8248
68.9513,148.6831
69.0309,148.5271
69.0850,148.3605
69.1124,148.1876
69.1124,148.0124
69.0850,147.8395
69.0309,147.6729
68.9513,147.5169
68.8484,147.3752
68.7246,147.2514
68.5829,147.1485
68.4269,147.0690
68.2603,147.0148
68.0874,146.9874
67.9122,146.9874
Z" /> 
<path style="fill:#02FFEE; fill-opacity:0.4000; stroke:none;fill-rule:evenodd;"
d="M 67.0153,144.0379
66.9987,144.0489
66.9877,144.0655
66.9838,144.0850
66.9838,145.9150
66.9877,145.9345
66.9987,145.9511
67.0153,145.9621
67.0348,145.9660
68.9648,145.9660
68.9843,145.9621
69.0009,145.9511
69.0119,145.9345
69.0158,145.9150
69.0158,144.0850
69.0119,144.0655
69.0009,144.0489
68.9843,144.0379
68.9648,144.0340
67.0348,144.0340
Z" /> 
<path style="fill:#02FFEE; fill-opacity:0.4000; stroke:none;fill-rule:evenodd;"
d="M 87.7383,129.2178
87.5751,129.2854
87.4282,129.3835
87.3033,129.5084
87.2052,129.6553
87.1376,129.8185
87.1031,129.9917
87.1031,130.1683
87.1376,130.3415
87.2052,130.5047
87.3033,130.6516
87.4282,130.7765
87.5751,130.8746
87.7383,130.9422
87.9115,130.9767
88.0881,130.9767
88.2613,130.9422
88.4245,130.8746
88.5714,130.7765
88.6963,130.6516
88.7944,130.5047
88.8620,130.3415
88.8965,130.1683
88.8965,129.9917
88.8620,129.8185
88.7944,129.6553
88.6963,129.5084
88.5714,129.3835
88.4245,129.2854
88.2613,129.2178
88.0881,129.1833
87.9115,129.1833
Z" /> 
<path style="fill:#02FFEE; fill-opacity:0.4000; stroke:none;fill-rule:evenodd;"
d="M 7.7383,129.2178
7.5751,129.2854
7.4282,129.3835
7.3033,129.5084
7.2052,129.6553
7.1376,129.8185
7.1031,129.9917
7.1031,130.1683
7.1376,130.3415
7.2052,130.5047
7.3033,130.6516
7.4282,130.7765
7.5751,130.8746
7.7383,130.9422
7.9115,130.9767
8.0881,130.9767
8.2613,130.9422
8.4245,130.8746
8.5714,130.7765
8.6963,130.6516
8.7944,130.5047
8.8620,130.3415
8.8965,130.1683
8.8965,129.9917
8.8620,129.8185
8.7944,129.6553
8.6963,129.5084
8.5714,129.3835
8.4245,129.2854
8.2613,129.2178
8.0881,129.1833
7.9115,129.1833
Z" /> 
<path style="fill:#02FFEE; fill-opacity:0.4000; stroke:none;fill-rule:evenodd;"
d="M 5.1983,129.2178
5.0351,129.2854
4.8882,129.3835
4.7633,129.5084
4.6652,129.6553
4.5976,129.8185
4.5631,129.9917
4.5631,130.1683
4.5976,130.3415
4.6652,130.5047
4.7633,130.6516
4.8882,130.7765
5.0351,130.8746
5.1983,130.9422
5.3715,130.9767
5.5481,130.9767
5.7213,130.9422
5.8845,130.8746
6.0314,130.7765
6.1563,130.6516
6.2544,130.5047
6.3220,130.3415
6.3565,130.1683
6.3565,129.9917
6.3220,129.8185
6.2544,129.6553
6.1563,129.5084
6.0314,129.3835
5.8845,129.2854
5.7213,129.2178
5.5481,129.1833
5.3715,129.1833
Z" /> 
<path style="fill:#02FFEE; fill-opacity:0.4000; stroke:none;fill-rule:evenodd;"
d="M 87.7383,126.6778
87.5751,126.7454
87.4282,126.8435
87.3033,126.9684
87.2052,127.1153
87.1376,127.2785
87.1031,127.4517
87.1031,127.6283
87.1376,127.8015
87.2052,127.9647
87.3033,128.1116
87.4282,128.2365
87.5751,128.3346
87.7383,128.4022
87.9115,128.4367
88.0881,128.4367
88.2613,128.4022
88.4245,128.3346
88.5714,128.2365
88.6963,128.1116
88.7944,127.9647
88.8620,127.8015
88.8965,127.6283
88.8965,127.4517
88.8620,127.2785
88.7944,127.1153
88.6963,126.9684
88.5714,126.8435
88.4245,126.7454
88.2613,126.6778
88.0881,126.6433
87.9115,126.6433
Z" /> 
<path style="fill:#02FFEE; fill-opacity:0.4000; stroke:none;fill-rule:evenodd;"
d="M 7.7383,126.6778
7.5751,126.7454
7.4282,126.8435
7.3033,126.9684
7.2052,127.1153
7.1376,127.2785
7.1031,127.4517
7.1031,127.6283
7.1376,127.8015
7.2052,127.9647
7.3033,128.1116
7.4282,128.2365
7.5751,128.3346
7.7383,128.4022
7.9115,128.4367
8.0881,128.4367
8.2613,128.4022
8.4245,128.3346
8.5714,128.2365
8.6963,128.1116
8.7944,127.9647
8.8620,127.8015
8.8965,127.6283
8.8965,127.4517
8.8620,127.2785
8.7944,127.1153
8.6963,126.9684
8.5714,126.8435
8.4245,126.7454
8.2613,126.6778
8.0881,126.6433
7.9115,126.6433
Z" /> 
<path style="fill:#02FFEE; fill-opacity:0.4000; stroke:none;fill-rule:evenodd;"
d="M 5.1983,126.6778
5.0351,126.7454
4.8882,126.8435
4.7633,126.9684
4.6652,127.1153
4.5976,127.2785
4.5631,127.4517
4.5631,127.6283
4.5976,127.8015
4.6652,127.9647
4.7633,128.1116
4.8882,128.2365
5.0351,128.3346
5.1983,128.4022
5.3715,128.4367
5.5481,128.4367
5.7213,128.4022
5.8845,128.3346
6.0314,128.2365
6.1563,128.1116
6.2544,127.9647
6.3220,127.8015
6.3565,127.6283
6.3565,127.4517
6.3220,127.2785
6.2544,127.1153
6.1563,126.9684
6.0314,126.8435
5.8845,126.7454
5.7213,126.6778
5.5481,126.6433
5.3715,126.6433
Z" /> 
<path style="fill:#02FFEE; fill-opacity:0.4000; stroke:none;fill-rule:evenodd;"
d="M 87.1303,124.1029
87.1137,124.1139
87.1027,124.1305
87.0988,124.1500
87.0988,125.8500
87.1027,125.8695
87.1137,125.8861
87.1303,125.8971
87.1498,125.9010
88.8498,125.9010
88.8693,125.8971
88.8859,125.8861
88.8969,125.8695
88.9008,125.8500
88.9008,124.1500
88.8969,124.1305
88.8859,124.1139
88.8693,124.1029
88.8498,124.0990
87.1498,124.0990
Z" /> 
<path style="fill:#02FFEE; fill-opacity:0.4000; stroke:none;fill-rule:evenodd;"
d="M 7.1303,124.1029
7.1137,124.1139
7.1027,124.1305
7.0988,124.1500
7.0988,125.8500
7.1027,125.8695
7.1137,125.8861
7.1303,125.8971
7.1498,125.9010
8.8498,125.9010
8.8693,125.8971
8.8859,125.8861
8.8969,125.8695
8.9008,125.8500
8.9008,124.1500
8.8969,124.1305
8.8859,124.1139
8.8693,124.1029
8.8498,124.0990
7.1498,124.0990
Z" /> 
<path style="fill:#02FFEE; fill-opacity:0.4000; stroke:none;fill-rule:evenodd;"
d="M 5.1983,124.1378
5.0351,124.2054
4.8882,124.3035
4.7633,124.4284
4.6652,124.5753
4.5976,124.7385
4.5631,124.9117
4.5631,125.0883
4.5976,125.2615
4.6652,125.4247
4.7633,125.5716
4.8882,125.6965
5.0351,125.7946
5.1983,125.8622
5.3715,125.8967
5.5481,125.8967
5.7213,125.8622
5.8845,125.7946
6.0314,125.6965
6.1563,125.5716
6.2544,125.4247
6.3220,125.2615
6.3565,125.0883
6.3565,124.9117
6.3220,124.7385
6.2544,124.5753
6.1563,124.4284
6.0314,124.3035
5.8845,124.2054
5.7213,124.1378
5.5481,124.1033
5.3715,124.1033
Z" /> 
<path style="fill:#02FFEE; fill-opacity:0.4000; stroke:none;fill-rule:evenodd;"
d="M 4.5809,89.0820
4.5762,89.0841
4.5730,89.0845
4.5334,89.1030
4.4797,89.1267
4.4015,89.2049
4.3778,89.2586
4.3593,89.2982
4.3589,89.3014
4.3568,89.3061
4.3488,89.3750
4.3488,90.6250
4.3568,90.6939
4.3589,90.6986
4.3593,90.7018
4.3778,90.7414
4.4015,90.7951
4.4797,90.8733
4.5334,90.8970
4.5730,90.9155
4.5762,90.9159
4.5809,90.9180
4.6498,90.9260
5.3498,90.9260
5.4187,90.9180
5.4234,90.9159
5.4266,90.9155
5.4662,90.8970
5.5199,90.8733
5.5981,90.7951
5.6218,90.7414
5.6403,90.7018
5.6407,90.6986
5.6428,90.6939
5.6508,90.6250
5.6508,89.3750
5.6428,89.3061
5.6407,89.3014
5.6403,89.2982
5.6218,89.2585
5.5981,89.2049
5.5199,89.1267
5.4663,89.1030
5.4266,89.0845
5.4234,89.0841
5.4187,89.0820
5.3498,89.0740
4.6498,89.0740
Z" /> 
<path style="fill:#02FFEE; fill-opacity:0.4000; stroke:none;fill-rule:evenodd;"
d="M 4.8108,87.1020
4.6929,87.1509
4.5868,87.2218
4.4966,87.3120
4.4257,87.4181
4.3768,87.5360
4.3519,87.6612
4.3488,87.7250
4.3488,88.2750
4.3519,88.3388
4.3768,88.4640
4.4257,88.5819
4.4966,88.6880
4.5868,88.7782
4.6929,88.8491
4.8108,88.8980
4.9360,88.9229
5.0636,88.9229
5.1888,88.8980
5.3067,88.8491
5.4128,88.7782
5.5030,88.6880
5.5739,88.5819
5.6228,88.4640
5.6477,88.3388
5.6508,88.2750
5.6508,87.7250
5.6477,87.6612
5.6228,87.5360
5.5739,87.4181
5.5030,87.3120
5.4128,87.2218
5.3067,87.1509
5.1888,87.1020
5.0636,87.0771
4.9360,87.0771
Z" /> 
<path style="fill:#02FFEE; fill-opacity:0.4000; stroke:none;fill-rule:evenodd;"
d="M 96.3081,79.8671
96.1948,79.9325
96.1023,80.0250
96.0369,80.1383
96.0031,80.2646
96.0031,80.3954
96.0369,80.5217
96.1023,80.6350
96.1948,80.7275
96.3081,80.7929
96.4344,80.8267
96.5652,80.8267
96.6915,80.7929
96.8048,80.7275
96.8973,80.6350
96.9627,80.5217
96.9965,80.3954
96.9965,80.2646
96.9627,80.1383
96.8973,80.0250
96.8048,79.9325
96.6915,79.8671
96.5652,79.8333
96.4344,79.8333
Z" /> 
<path style="fill:#02FFEE; fill-opacity:0.4000; stroke:none;fill-rule:evenodd;"
d="M 93.3081,79.8671
93.1948,79.9325
93.1023,80.0250
93.0369,80.1383
93.0031,80.2646
93.0031,80.3954
93.0369,80.5217
93.1023,80.6350
93.1948,80.7275
93.3081,80.7929
93.4344,80.8267
93.5652,80.8267
93.6915,80.7929
93.8048,80.7275
93.8973,80.6350
93.9627,80.5217
93.9965,80.3954
93.9965,80.2646
93.9627,80.1383
93.8973,80.0250
93.8048,79.9325
93.6915,79.8671
93.5652,79.8333
93.4344,79.8333
Z" /> 
<path style="fill:#02FFEE; fill-opacity:0.4000; stroke:none;fill-rule:evenodd;"
d="M 19.7383,54.2978
19.5751,54.3654
19.4282,54.4635
19.3033,54.5884
19.2052,54.7353
19.1376,54.8985
19.1031,55.0717
19.1031,55.2483
19.1376,55.4215
19.2052,55.5847
19.3033,55.7316
19.4282,55.8565
19.5751,55.9546
19.7383,56.0222
19.9115,56.0567
20.0881,56.0567
20.2613,56.0222
20.4245,55.9546
20.5714,55.8565
20.6963,55.7316
20.7944,55.5847
20.8620,55.4215
20.8965,55.2483
20.8965,55.0717
20.8620,54.8985
20.7944,54.7353
20.6963,54.5884
20.5714,54.4635
20.4245,54.3654
20.2613,54.2978
20.0881,54.2633
19.9115,54.2633
Z" /> 
<path style="fill:#02FFEE; fill-opacity:0.4000; stroke:none;fill-rule:evenodd;"
d="M 19.7383,51.7578
19.5751,51.8254
19.4282,51.9235
19.3033,52.0484
19.2052,52.1953
19.1376,52.3585
19.1031,52.5317
19.1031,52.7083
19.1376,52.8815
19.2052,53.0447
19.3033,53.1916
19.4282,53.3165
19.5751,53.4146
19.7383,53.4822
19.9115,53.5167
20.0881,53.5167
20.2613,53.4822
20.4245,53.4146
20.5714,53.3165
20.6963,53.1916
20.7944,53.0447
20.8620,52.8815
20.8965,52.7083
20.8965,52.5317
20.8620,52.3585
20.7944,52.1953
20.6963,52.0484
20.5714,51.9235
20.4245,51.8254
20.2613,51.7578
20.0881,51.7233
19.9115,51.7233
Z" /> 
<path style="fill:#02FFEE; fill-opacity:0.4000; stroke:none;fill-rule:evenodd;"
d="M 19.7383,49.2178
19.5751,49.2854
19.4282,49.3835
19.3033,49.5084
19.2052,49.6553
19.1376,49.8185
19.1031,49.9917
19.1031,50.1683
19.1376,50.3415
19.2052,50.5047
19.3033,50.6516
19.4282,50.7765
19.5751,50.8746
19.7383,50.9422
19.9115,50.9767
20.0881,50.9767
20.2613,50.9422
20.4245,50.8746
20.5714,50.7765
20.6963,50.6516
20.7944,50.5047
20.8620,50.3415
20.8965,50.1683
20.8965,49.9917
20.8620,49.8185
20.7944,49.6553
20.6963,49.5084
20.5714,49.3835
20.4245,49.2854
20.2613,49.2178
20.0881,49.1833
19.9115,49.1833
Z" /> 
<path style="fill:#02FFEE; fill-opacity:0.4000; stroke:none;fill-rule:evenodd;"
d="M 19.7383,46.6778
19.5751,46.7454
19.4282,46.8435
19.3033,46.9684
19.2052,47.1153
19.1376,47.2785
19.1031,47.4517
19.1031,47.6283
19.1376,47.8015
19.2052,47.9647
19.3033,48.1116
19.4282,48.2365
19.5751,48.3346
19.7383,48.4022
19.9115,48.4367
20.0881,48.4367
20.2613,48.4022
20.4245,48.3346
20.5714,48.2365
20.6963,48.1116
20.7944,47.9647
20.8620,47.8015
20.8965,47.6283
20.8965,47.4517
20.8620,47.2785
20.7944,47.1153
20.6963,46.9684
20.5714,46.8435
20.4245,46.7454
20.2613,46.6778
20.0881,46.6433
19.9115,46.6433
Z" /> 
<path style="fill:#02FFEE; fill-opacity:0.4000; stroke:none;fill-rule:evenodd;"
d="M 43.2810,44.0570
43.2763,44.0591
43.2731,44.0595
43.2334,44.0780
43.1798,44.1017
43.1015,44.1800
43.0778,44.2337
43.0593,44.2733
43.0589,44.2765
43.0568,44.2812
43.0488,44.3502
43.0488,45.6498
43.0568,45.7188
43.0589,45.7235
43.0593,45.7267
43.0778,45.7663
43.1015,45.8200
43.1798,45.8983
43.2335,45.9220
43.2731,45.9405
43.2763,45.9409
43.2810,45.9430
43.3500,45.9510
44.6496,45.9510
44.7186,45.9430
44.7233,45.9409
44.7265,45.9405
44.7661,45.9220
44.8198,45.8983
44.8981,45.8200
44.9218,45.7664
44.9403,45.7267
44.9407,45.7235
44.9428,45.7188
44.9508,45.6498
44.9508,44.3502
44.9428,44.2812
44.9407,44.2765
44.9403,44.2733
44.9218,44.2336
44.8981,44.1800
44.8198,44.1017
44.7662,44.0780
44.7265,44.0595
44.7233,44.0591
44.7186,44.0570
44.6496,44.0490
43.3500,44.0490
Z" /> 
<path style="fill:#02FFEE; fill-opacity:0.4000; stroke:none;fill-rule:evenodd;"
d="M 41.1837,44.0899
41.0115,44.1613
40.8565,44.2649
40.7247,44.3967
40.6211,44.5517
40.5497,44.7239
40.5134,44.9068
40.5134,45.0932
40.5497,45.2761
40.6211,45.4483
40.7247,45.6033
40.8565,45.7351
41.0115,45.8387
41.1837,45.9100
41.3666,45.9464
41.5530,45.9464
41.7359,45.9100
41.9081,45.8387
42.0631,45.7351
42.1949,45.6033
42.2985,45.4483
42.3698,45.2761
42.4062,45.0932
42.4062,44.9068
42.3698,44.7239
42.2985,44.5517
42.1949,44.3967
42.0631,44.2649
41.9081,44.1613
41.7359,44.0899
41.5530,44.0536
41.3666,44.0536
Z" /> 
<path style="fill:#02FFEE; fill-opacity:0.4000; stroke:none;fill-rule:evenodd;"
d="M 38.6437,44.0899
38.4715,44.1613
38.3165,44.2649
38.1847,44.3967
38.0811,44.5517
38.0097,44.7239
37.9734,44.9068
37.9734,45.0932
38.0097,45.2761
38.0811,45.4483
38.1847,45.6033
38.3165,45.7351
38.4715,45.8387
38.6437,45.9100
38.8266,45.9464
39.0130,45.9464
39.1959,45.9100
39.3681,45.8387
39.5231,45.7351
39.6549,45.6033
39.7585,45.4483
39.8299,45.2761
39.8662,45.0932
39.8662,44.9068
39.8299,44.7239
39.7585,44.5517
39.6549,44.3967
39.5231,44.2649
39.3681,44.1613
39.1959,44.0899
39.0130,44.0536
38.8266,44.0536
Z" /> 
<path style="fill:#02FFEE; fill-opacity:0.4000; stroke:none;fill-rule:evenodd;"
d="M 19.1303,44.1029
19.1137,44.1139
19.1027,44.1305
19.0988,44.1500
19.0988,45.8500
19.1027,45.8695
19.1137,45.8861
19.1303,45.8971
19.1498,45.9010
20.8498,45.9010
20.8693,45.8971
20.8859,45.8861
20.8969,45.8695
20.9008,45.8500
20.9008,44.1500
20.8969,44.1305
20.8859,44.1139
20.8693,44.1029
20.8498,44.0990
19.1498,44.0990
Z" /> 
<path style="fill:#02FFEE; fill-opacity:0.4000; stroke:none;fill-rule:evenodd;"
d="M 89.6727,8.6377
89.4637,8.7056
89.2678,8.8055
89.0899,8.9347
88.9345,9.0901
88.8053,9.2680
88.7054,9.4639
88.6375,9.6729
88.6031,9.8901
88.6031,10.1099
88.6375,10.3271
88.7054,10.5361
88.8053,10.7320
88.9345,10.9099
89.0899,11.0653
89.2678,11.1945
89.4637,11.2944
89.6727,11.3623
89.8899,11.3967
90.1097,11.3967
90.3269,11.3623
90.5359,11.2944
90.7318,11.1945
90.9097,11.0653
91.0651,10.9099
91.1943,10.7320
91.2942,10.5361
91.3621,10.3271
91.3965,10.1099
91.3965,9.8901
91.3621,9.6729
91.2942,9.4639
91.1943,9.2680
91.0651,9.0901
90.9097,8.9347
90.7318,8.8055
90.5359,8.7056
90.3269,8.6377
90.1097,8.6033
89.8899,8.6033
Z" /> 
<path style="fill:#02FFEE; fill-opacity:0.4000; stroke:none;fill-rule:evenodd;"
d="M 9.6727,8.6377
9.4637,8.7056
9.2678,8.8055
9.0899,8.9347
8.9345,9.0901
8.8053,9.2680
8.7054,9.4639
8.6375,9.6729
8.6031,9.8901
8.6031,10.1099
8.6375,10.3271
8.7054,10.5361
8.8053,10.7320
8.9345,10.9099
9.0899,11.0653
9.2678,11.1945
9.4637,11.2944
9.6727,11.3623
9.8899,11.3967
10.1097,11.3967
10.3269,11.3623
10.5359,11.2944
10.7318,11.1945
10.9097,11.0653
11.0651,10.9099
11.1943,10.7320
11.2942,10.5361
11.3621,10.3271
11.3965,10.1099
11.3965,9.8901
11.3621,9.6729
11.2942,9.4639
11.1943,9.2680
11.0651,9.0901
10.9097,8.9347
10.7318,8.8055
10.5359,8.7056
10.3269,8.6377
10.1097,8.6033
9.8899,8.6033
Z" /> 
</g>
<g style="fill:#FFFFFF; fill-opacity:1.0000; stroke:none;">
<circle cx="51.2748" cy="63.7250" r="0.1750" /> 
</g>
<g style="fill:#FFFFFF; fill-opacity:1.0000; stroke:none;">
<circle cx="51.2748" cy="65.0000" r="0.1750" /> 
</g>
<g style="fill:#FFFFFF; fill-opacity:1.0000; stroke:none;">
<circle cx="51.2748" cy="66.2750" r="0.1750" /> 
</g>
<g style="fill:#FFFFFF; fill-opacity:1.0000; stroke:none;">
<circle cx="49.9998" cy="63.7250" r="0.1750" /> 
</g>
<g style="fill:#FFFFFF; fill-opacity:1.0000; stroke:none;">
<circle cx="49.9998" cy="65.0000" r="0.1750" /> 
</g>
<g style="fill:#FFFFFF; fill-opacity:1.0000; stroke:none;">
<circle cx="49.9998" cy="66.2750" r="0.1750" /> 
</g>
<g style="fill:#FFFFFF; fill-opacity:1.0000; stroke:none;">
<circle cx="48.7248" cy="63.7250" r="0.1750" /> 
</g>
<g style="fill:#FFFFFF; fill-opacity:1.0000; stroke:none;">
<circle cx="48.7248" cy="65.0000" r="0.1750" /> 
</g>
<g style="fill:#FFFFFF; fill-opacity:1.0000; stroke:none;">
<circle cx="48.7248" cy="66.2750" r="0.1750" /> 
</g>
<g style="fill:#000000; fill-opacity:1.0000; stroke:none;">
<circle cx="9.9998" cy="10.0000" r="1.3500" /> 
<circle cx="89.9998" cy="150.0000" r="1.3500" /> 
<circle cx="89.9998" cy="10.0000" r="1.3500" /> 
<circle cx="9.9998" cy="150.0000" r="1.3500" /> 
</g>
<g style="fill:#FFFFFF; fill-opacity:1.0000; stroke:none;">
<circle cx="7.9998" cy="125.0000" r="0.5000" /> 
</g>
<g style="fill:#FFFFFF; fill-opacity:1.0000; stroke:none;">
<circle cx="5.4598" cy="125.0000" r="0.5000" /> 
</g>
<g style="fill:#FFFFFF; fill-opacity:1.0000; stroke:none;">
<circle cx="7.9998" cy="127.5400" r="0.5000" /> 
</g>
<g style="fill:#FFFFFF; fill-opacity:1.0000; stroke:none;">
<circle cx="5.4598" cy="127.5400" r="0.5000" /> 
</g>
<g style="fill:#FFFFFF; fill-opacity:1.0000; stroke:none;">
<circle cx="7.9998" cy="130.0800" r="0.5000" /> 
</g>
<g style="fill:#FFFFFF; fill-opacity:1.0000; stroke:none;">
<circle cx="5.4598" cy="130.0800" r="0.5000" /> 
</g>
<g style="fill:#FFFFFF; fill-opacity:1.0000; stroke:none;">
<circle cx="87.9998" cy="125.0000" r="0.5000" /> 
</g>
<g style="fill:#FFFFFF; fill-opacity:1.0000; stroke:none;">
<circle cx="87.9998" cy="127.5400" r="0.5000" /> 
</g>
<g style="fill:#FFFFFF; fill-opacity:1.0000; stroke:none;">
<circle cx="87.9998" cy="130.0800" r="0.5000" /> 
</g>
<g style="fill:#FFFFFF; fill-opacity:1.0000; stroke:none;">
<circle cx="4.9998" cy="90.0000" r="0.3750" /> 
</g>
<g style="fill:#FFFFFF; fill-opacity:1.0000; stroke:none;">
<circle cx="4.9998" cy="88.0000" r="0.3750" /> 
</g>
<g style="fill:#000000; fill-opacity:1.0000; stroke:none;">
<circle cx="96.4998" cy="80.3300" r="0.4500" /> 
<circle cx="93.4998" cy="80.3300" r="0.4500" /> 
</g>
<g style="fill:#FFFFFF; fill-opacity:1.0000; stroke:none;">
<circle cx="43.9998" cy="45.0000" r="0.4500" /> 
</g>
<g style="fill:#FFFFFF; fill-opacity:1.0000; stroke:none;">
<circle cx="41.4598" cy="45.0000" r="0.4500" /> 
</g>
<g style="fill:#FFFFFF; fill-opacity:1.0000; stroke:none;">
<circle cx="38.9198" cy="45.0000" r="0.4500" /> 
</g>
<g style="fill:#FFFFFF; fill-opacity:1.0000; stroke:none;">
<circle cx="67.9998" cy="145.0000" r="0.6100" /> 
</g>
<g style="fill:#FFFFFF; fill-opacity:1.0000; stroke:none;">
<circle cx="67.9998" cy="156.4000" r="0.7150" /> 
</g>
<g style="fill:#FFFFFF; fill-opacity:1.0000; stroke:none;">
<circle cx="67.9998" cy="148.1000" r="0.7100" /> 
</g>
<g style="fill:#FFFFFF; fill-opacity:1.0000; stroke:none;">
<circle cx="19.9998" cy="45.0000" r="0.5000" /> 
</g>
<g style="fill:#FFFFFF; fill-opacity:1.0000; stroke:none;">
<circle cx="19.9998" cy="47.5400" r="0.5000" /> 
</g>
<g style="fill:#FFFFFF; fill-opacity:1.0000; stroke:none;">
<circle cx="19.9998" cy="50.0800" r="0.5000" /> 
</g>
<g style="fill:#FFFFFF; fill-opacity:1.0000; stroke:none;">
<circle cx="19.9998" cy="52.6200" r="0.5000" /> 
</g>
<g style="fill:#FFFFFF; fill-opacity:1.0000; stroke:none;">
<circle cx="19.9998" cy="55.1600" r="0.5000" /> 
</g> 
</svg>
